<mxfile host="app.diagrams.net" modified="2023-11-01T17:22:06.276Z" agent="Mozilla/5.0 (Windows NT 10.0; Win64; x64) AppleWebKit/537.36 (KHTML, like Gecko) Chrome/118.0.0.0 Safari/537.36" version="22.0.8" etag="FFqVx55wwops5kiwpM4L" type="github">
  <diagram name="Page-1" id="xacZtGBSgv95IU9FqSew">
    <mxGraphModel>
      <root>
        <mxCell id="0" />
        <mxCell id="1" parent="0" />
      </root>
    </mxGraphModel>
  </diagram>
</mxfile>
